# xmcd
#
# Track frame offsets:
#	150
#	38620
#	65914
#	96101
#	131913
#	161952
#	190034
#	221820
#
# Disc length: 3466 seconds
#
# Revision: 0
# Processed by: cddbd v1.5.2PL0 Copyright (c) Steve Scherf et al.
# Submitted via: SynApp - FreeCDDB Version: 2.4
#
DISCID=790d8808
DTITLE=Ma Faica - Liquid dreams
DYEAR=1999
DGENRE=Acid
TTITLE0=k
TTITLE1=u
TTITLE2=k
TTITLE3=k
TTITLE4=h
TTITLE5=r
TTITLE6=e
TTITLE7=z
EXTD=
EXTT0=
EXTT1=
EXTT2=
EXTT3=
EXTT4=
EXTT5=
EXTT6=
EXTT7=
PLAYORDER=
